<?xml version="1.0" encoding="utf-8"?>
<svg width="500mm" height="500mm" viewBox="0 0 500 500" version="1.1" id="svg8" xmlns="http://www.w3.org/2000/svg" xmlns:xlink="http://www.w3.org/1999/xlink">
  <defs id="defs2">
    <linearGradient id="linearGradient5521">
      <stop style="stop-color:#cca686;stop-opacity:1" offset="0" id="stop5517"/>
      <stop style="stop-color:#e1c6a5;stop-opacity:1" offset="1" id="stop5519"/>
    </linearGradient>
    <linearGradient id="linearGradient5515">
      <stop style="stop-color:#cda889;stop-opacity:1" offset="0" id="stop5511"/>
      <stop style="stop-color:#ddbea0;stop-opacity:1" offset="1" id="stop5513"/>
    </linearGradient>
    <linearGradient id="linearGradient5441">
      <stop id="stop5437" offset="0" style="stop-color:#cca686;stop-opacity:1"/>
      <stop id="stop5439" offset="1" style="stop-color:#e2cab0;stop-opacity:1"/>
    </linearGradient>
    <linearGradient id="linearGradient5351">
      <stop id="stop5347" offset="0" style="stop-color:#ebe8e6;stop-opacity:1"/>
      <stop id="stop5349" offset="1" style="stop-color:#f9f9f9;stop-opacity:1"/>
    </linearGradient>
    <linearGradient id="linearGradient5290">
      <stop style="stop-color:#f0f0f0;stop-opacity:1" offset="0" id="stop5286"/>
      <stop style="stop-color:#ffffff;stop-opacity:1" offset="1" id="stop5288"/>
    </linearGradient>
    <linearGradient id="linearGradient5274">
      <stop style="stop-color:#bc9a7d;stop-opacity:1" offset="0" id="stop5270"/>
      <stop style="stop-color:#e2cab0;stop-opacity:1" offset="1" id="stop5272"/>
    </linearGradient>
    <linearGradient id="linearGradient5276" x1="134.20543" y1="292.79166" x2="192.53456" y2="270.04126" gradientUnits="userSpaceOnUse" gradientTransform="matrix(1.4604491,0,0,1.4604491,-111.46252,-117.74474)" xlink:href="#linearGradient5274"/>
    <linearGradient id="linearGradient5284" x1="300" y1="100.80435" x2="309.23914" y2="87.869568" gradientUnits="userSpaceOnUse" gradientTransform="matrix(1.4604491,0,0,1.4604491,-110.11553,179.49138)" xlink:href="#linearGradient5290"/>
    <linearGradient gradientTransform="matrix(1.4604491,0,0,1.4604491,-111.46252,-117.74476)" id="linearGradient5276-9" x1="214.20543" y1="346.26993" x2="327.44199" y2="302.9585" gradientUnits="userSpaceOnUse" xlink:href="#linearGradient5351"/>
    <linearGradient id="linearGradient5369" x1="219.06479" y1="359.19305" x2="231.12155" y2="355.76917" gradientUnits="userSpaceOnUse" gradientTransform="matrix(1.4604491,0,0,1.4604491,-111.46252,-117.74474)" xlink:href="#linearGradient5274"/>
    <linearGradient gradientTransform="matrix(1.4604491,0,0,1.4604491,-111.46252,-117.74473)" id="linearGradient5369-0" x1="221.13" y1="357.83435" x2="236.55632" y2="354.73654" gradientUnits="userSpaceOnUse" xlink:href="#linearGradient5274"/>
    <linearGradient id="linearGradient5411" x1="343.60965" y1="319.6142" x2="347.5" y2="315.39856" gradientUnits="userSpaceOnUse" gradientTransform="matrix(1.4604491,0,0,1.4604491,-111.46252,-117.74474)" xlink:href="#linearGradient5441"/>
    <linearGradient gradientTransform="matrix(1.4604491,0,0,1.4604491,-111.46251,-117.74474)" id="linearGradient5411-0" x1="338.33792" y1="322.30444" x2="345.78802" y2="314.63766" gradientUnits="userSpaceOnUse" xlink:href="#linearGradient5274"/>
    <linearGradient id="linearGradient5451" x1="318.96664" y1="181.49545" x2="343.2179" y2="178.88223" gradientUnits="userSpaceOnUse" gradientTransform="matrix(1.4604491,0,0,1.4604491,-111.46252,-117.74474)" xlink:href="#linearGradient5274"/>
    <linearGradient id="linearGradient5451-1" x1="318.81293" y1="186.03017" x2="340.06665" y2="176.42273" gradientUnits="userSpaceOnUse" gradientTransform="matrix(1.4604491,0,0,1.4604491,-111.46252,-117.74474)" xlink:href="#linearGradient5274"/>
    <linearGradient id="linearGradient5485" x1="190.70427" y1="201.83417" x2="214.479" y2="181.40662" gradientUnits="userSpaceOnUse" gradientTransform="matrix(1.4604491,0,0,1.4604491,-111.46252,-117.74474)" xlink:href="#linearGradient5521"/>
    <linearGradient gradientTransform="matrix(1.4604491,0,0,1.4604491,-111.46252,-117.74474)" id="linearGradient5485-2" x1="218.72867" y1="188.68254" x2="214.23032" y2="182.48759" gradientUnits="userSpaceOnUse" xlink:href="#linearGradient5515"/>
  </defs>
  <path style="display:inline;fill:url(#linearGradient5451);fill-opacity:1;stroke:none;stroke-width:0.38641047px;stroke-linecap:butt;stroke-linejoin:miter;stroke-opacity:1" d="m 339.44289,126.10364 c 0.40634,-0.94814 30.23604,-24.82796 45.34871,-12.23518 24.85823,14.83127 17.28972,68.25958 11.11266,66.00257 z" id="path5443"/>
  <path style="display:inline;fill:url(#linearGradient5451-1);fill-opacity:1;stroke:none;stroke-width:0.38641047px;stroke-linecap:butt;stroke-linejoin:miter;stroke-opacity:1" d="m 343.09828,129.26355 c 0.10515,-0.36014 21.30666,-17.69105 41.69332,-15.39509 26.32236,16.05137 17.42005,68.3682 11.11266,66.00259 z" id="path5443-9"/>
  <path style="display:inline;fill:url(#linearGradient5411);fill-opacity:1;stroke:none;stroke-width:0.38641047px;stroke-linecap:butt;stroke-linejoin:miter;stroke-opacity:1" d="m 373.89869,341.42362 c -0.38322,0.64282 22.34238,22.3502 32.91058,10.38131 8.8962,-10.07527 -8.70204,-29.98626 -8.70204,-29.98626 z" id="path5395"/>
  <path style="fill:url(#linearGradient5411-0);fill-opacity:1;stroke:none;stroke-width:0.38641047px;stroke-linecap:butt;stroke-linejoin:miter;stroke-opacity:1" d="m 380.36753,336.30412 c 0.33959,0.0131 21.04341,22.9669 26.44174,15.50081 7.87531,-10.89187 -8.70204,-29.98626 -8.70204,-29.98626 z" id="path5395-6"/>
  <path style="fill:url(#linearGradient5369);fill-opacity:1;stroke:none;stroke-width:0.38641047px;stroke-linecap:butt;stroke-linejoin:miter;stroke-opacity:1" d="m 205.55017,383.25279 c 0,0 -4.92107,43.33725 23.01795,40.00362 27.93903,-3.33365 25.55787,-43.81347 25.55787,-43.81347 z" id="path5353"/>
  <path style="fill:url(#linearGradient5369-0);fill-opacity:1;stroke:none;stroke-width:0.38641047px;stroke-linecap:butt;stroke-linejoin:miter;stroke-opacity:1" d="m 214.51923,382.61782 c 0.091,-0.003 -0.8479,43.57703 14.04889,40.6386 27.60531,-5.44519 25.55787,-43.81348 25.55787,-43.81348 z" id="path5353-6"/>
  <path style="display:inline;fill:url(#linearGradient5276);fill-opacity:1;stroke:none;stroke-width:0.38641047px;stroke-linecap:butt;stroke-linejoin:miter;stroke-opacity:1" d="m 158.38476,374.51131 c 55.52786,25.13749 125.91693,8.8051 182.29286,-14.36792 34.9699,-14.37419 78.71637,-36.22077 86.65644,-73.18652 C 439.49449,230.3428 398.50719,165.2238 352.35155,130.25686 302.22137,92.278862 225.35836,75.857909 166.46671,97.929063 111.06887,118.69084 55.835125,176.62218 54.66643,235.7712 c -1.14064,57.72983 51.11629,114.9271 103.71833,138.74011 z" id="path5268"/>
  <path style="display:inline;fill:url(#linearGradient5485);fill-opacity:1;stroke:none;stroke-width:0.38641047px;stroke-linecap:butt;stroke-linejoin:miter;stroke-opacity:1" d="m 177.91615,191.65722 c 1.72707,0.0514 2.95099,-2.06449 4.15948,-3.83908 16.29957,-23.93509 35.33064,-45.87564 57.02436,-63.66127 -14.79365,-25.142986 -47.34877,-16.36544 -56.77557,-11.72838 -12.14592,17.59466 -23.60069,59.7078 -4.40827,79.22873 z" id="path5477"/>
  <path style="display:inline;fill:url(#linearGradient5485-2);fill-opacity:1;stroke:none;stroke-width:0.38641047px;stroke-linecap:butt;stroke-linejoin:miter;stroke-opacity:1" d="m 182.06936,187.95298 c 17.36146,-25.73312 34.08687,-44.19012 57.03063,-63.79611 -14.79365,-25.142986 -46.45077,-15.57969 -55.87757,-10.94263 -9.00294,14.22718 -20.34548,55.21781 -1.15306,74.73874 z" id="path5477-3"/>
  <path style="display:inline;opacity:1;fill:url(#linearGradient5276-9);fill-opacity:1;stroke:none;stroke-width:0.38701898;stroke-linecap:butt;stroke-linejoin:miter;stroke-miterlimit:4;stroke-dasharray:none;stroke-opacity:1" d="m 191.85101,384.74058 c 31.33258,4.14328 49.15209,2.93311 82.95361,-3.20094 23.30024,-4.22835 72.09729,-20.64848 104.00721,-39.55807 14.62738,-8.66807 24.27584,-13.31775 38.77242,-33.10363 -14.10883,14.11535 -33.8701,4.0096 -58.42358,9.45134 -67.4628,44.74341 -153.35401,43.57734 -193.10677,13.6199 0.28431,4.66004 2.95659,24.8019 25.79711,52.7914 z" id="path5268-7"/>
  <ellipse style="fill:#000000;fill-opacity:1;stroke:none;stroke-width:3.12608504;stroke-linecap:round;stroke-miterlimit:4;stroke-dasharray:none;stroke-opacity:1" id="path4013" cx="395.84207" cy="95.67923" rx="16.468458" ry="17.809484" transform="rotate(29.880944)"/>
  <ellipse style="fill:#ffffff;fill-opacity:1;stroke:none;stroke-width:3.12608504;stroke-linecap:round;stroke-miterlimit:4;stroke-dasharray:none;stroke-opacity:1" id="path4874" cx="292.21194" cy="288.03699" rx="3.037884" ry="2.9539645"/>
  <path style="fill:#ffffff;fill-opacity:1;stroke:none;stroke-width:3.12608504;stroke-linecap:round;stroke-linejoin:miter;stroke-miterlimit:4;stroke-dasharray:none;stroke-opacity:1" d="m 416.39594,297.23453 c -4.56522,-2.01409 -5.37086,-0.67134 -5.90793,0.5371 -0.53709,1.20842 2.14835,2.81969 4.69949,3.62529 2.55113,0.80565 4.29664,0.67135 4.69946,-0.67134 0.40284,-1.34271 -1.68185,-2.69288 -3.49102,-3.49105 z" id="path4846"/>
  <path id="path4848" d="m 359.2141,320.39489 c -8.34507,17.08762 -41.02932,19.06957 -43.65575,-1.81129 -3.22254,-22.82609 30.47952,-32.76215 32.22506,-35.3133 0,0 -6.71358,-84.32221 5.37085,-84.99358 5.93491,-0.32971 17.53213,20.17514 22.45944,40.13812 5.10544,20.6847 3.44532,40.87659 3.99193,41.90152 0.757,1.41932 8.60915,0.75496 12.65259,7.17454 1.69428,2.68996 1.67455,10.47574 0.50599,15.51727 -1.88414,8.1288 -5.51641,14.19736 -14.84823,19.29966 0,0 -13.78759,5.33109 -17.63282,-1.78969" style="fill:url(#linearGradient5284);fill-opacity:1;stroke:none;stroke-width:3.12608504;stroke-linecap:round;stroke-linejoin:miter;stroke-miterlimit:4;stroke-dasharray:none;stroke-opacity:1"/>
  <path style="fill:#ffffff;fill-opacity:1;stroke:none;stroke-width:3.12608504;stroke-linecap:round;stroke-linejoin:miter;stroke-miterlimit:4;stroke-dasharray:none;stroke-opacity:1" d="m 417.8729,286.22431 c -3.35677,0.13422 -5.08099,0.69297 -4.96805,2.55114 0.10997,1.80919 3.29206,1.97019 5.10233,1.87979 1.83929,-0.0919 5.03877,-0.57666 4.96804,-2.41688 -0.0701,-1.82714 -3.24222,-2.08844 -5.10232,-2.01405 z" id="path4842"/>
  <path style="fill:#ffffff;fill-opacity:1;stroke:none;stroke-width:3.12608504;stroke-linecap:round;stroke-linejoin:miter;stroke-miterlimit:4;stroke-dasharray:none;stroke-opacity:1" d="m 263.05833,332.68209 c 14.367,-4.69948 21.21482,-7.11638 22.02045,-4.83372 0.80561,2.28259 -12.75574,6.84779 -20.54348,9.26468 -7.78771,2.41689 -19.87211,7.51919 -20.67774,4.69947 -0.80564,-2.81969 19.20077,-9.13043 19.20077,-9.13043 z" id="path4840"/>
  <path style="fill:#ffffff;fill-opacity:1;stroke:none;stroke-width:3.12608504;stroke-linecap:round;stroke-linejoin:miter;stroke-miterlimit:4;stroke-dasharray:none;stroke-opacity:1" d="m 262.92406,326.23707 c 15.70971,-3.62531 21.61764,-5.77364 21.2148,-7.65344 -0.40279,-1.87979 -11.27875,-0.26855 -22.82604,2.41688 -11.54733,2.68542 -22.15475,4.02815 -21.48338,7.11636 0.67134,3.08825 23.09462,-1.8798 23.09462,-1.8798 z" id="path4838"/>
  <ellipse style="fill:#000000;fill-opacity:1;stroke:none;stroke-width:3.12608886;stroke-linecap:round;stroke-miterlimit:4;stroke-dasharray:none;stroke-opacity:1" id="path4023" cx="396.52823" cy="273.23672" rx="5.9616985" ry="15.148222" transform="matrix(0.99922393,-0.03938966,0.04166198,0.99913176,0,0)"/>
  <ellipse style="fill:#ffffff;fill-opacity:1;stroke:none;stroke-width:1.84723198;stroke-linecap:round;stroke-miterlimit:4;stroke-dasharray:none;stroke-opacity:1" id="path4878" cx="409.45648" cy="262.52264" rx="1.3329165" ry="2.3060927"/>
  <path style="fill:none;stroke:#000000;stroke-width:1.4604491;stroke-linecap:round;stroke-linejoin:miter;stroke-miterlimit:4;stroke-dasharray:none;stroke-opacity:1" d="m 359.98692,320.39489 c 0,0 4.14473,-10.53889 3.74194,-18.86367" id="path4895"/>
  <path style="fill:none;stroke-width:0.12204611" d="" id="path4015"/>
  <path style="display:inline;fill:#a3654f;fill-opacity:1;stroke:none;stroke-width:3.12608504;stroke-linecap:round;stroke-linejoin:miter;stroke-miterlimit:4;stroke-dasharray:none;stroke-opacity:1" d="m 363.62737,281.12197 c -7.43214,1.96054 -9.04198,5.42339 -9.66753,8.59338 -0.64308,3.25889 0.52323,7.83498 4.05117,9.1046 4.97236,1.78945 14.24113,-1.93312 15.52262,-7.96272 1.26802,-5.96612 -1.22291,-12.02583 -9.90626,-9.73526 z" id="path4897"/>
  <g style="" transform="matrix(0.122767, 0, 0, 0.122767, 27.570992, 40.8773)">
    <polygon style="fill: rgb(255, 225, 0);" points="66.554 46.598 52.999 81.067 70.751 114.651 77.99 78.517"/>
    <polygon style="fill: rgb(255, 225, 0);" points="67.163 48.442 53.608 82.911 71.36 116.495 78.599 80.361" transform="matrix(0.056111, -0.998425, 0.998425, 0.056111, -19.944208, 143.840471)"/>
  </g>
  <g style="" transform="matrix(0.184831, 0, 0, 0.184831, 55.72533, 71.505646)">
    <polygon style="fill: rgb(255, 225, 0);" points="66.554 46.598 52.999 81.067 70.751 114.651 77.99 78.517"/>
    <polygon style="fill: rgb(255, 225, 0);" points="67.163 48.442 53.608 82.911 71.36 116.495 78.599 80.361" transform="matrix(0.056111, -0.998425, 0.998425, 0.056111, -19.944208, 143.840471)"/>
  </g>
  <g style="" transform="matrix(0.122767, 0, 0, 0.122767, 106.091209, 46.865013)">
    <polygon style="fill: rgb(255, 225, 0);" points="66.554 46.598 52.999 81.067 70.751 114.651 77.99 78.517"/>
    <polygon style="fill: rgb(255, 225, 0);" points="67.163 48.442 53.608 82.911 71.36 116.495 78.599 80.361" transform="matrix(0.056111, -0.998425, 0.998425, 0.056111, -19.944208, 143.840471)"/>
  </g>
  <g style="" transform="matrix(0.122767, 0, 0, 0.122767, 339.040466, 28.269003)">
    <polygon style="fill: rgb(255, 225, 0);" points="66.554 46.598 52.999 81.067 70.751 114.651 77.99 78.517"/>
    <polygon style="fill: rgb(255, 225, 0);" points="67.163 48.442 53.608 82.911 71.36 116.495 78.599 80.361" transform="matrix(0.056111, -0.998425, 0.998425, 0.056111, -19.944208, 143.840471)"/>
  </g>
  <g style="" transform="matrix(0.122767, 0, 0, 0.122767, 381.406769, 415.944611)">
    <polygon style="fill: rgb(255, 225, 0);" points="66.554 46.598 52.999 81.067 70.751 114.651 77.99 78.517"/>
    <polygon style="fill: rgb(255, 225, 0);" points="67.163 48.442 53.608 82.911 71.36 116.495 78.599 80.361" transform="matrix(0.056111, -0.998425, 0.998425, 0.056111, -19.944208, 143.840471)"/>
  </g>
  <g style="" transform="matrix(0.149686, 0, 0, 0.149686, 47.680115, 431.74704)">
    <polygon style="fill: rgb(255, 225, 0);" points="66.554 46.598 52.999 81.067 70.751 114.651 77.99 78.517"/>
    <polygon style="fill: rgb(255, 225, 0);" points="67.163 48.442 53.608 82.911 71.36 116.495 78.599 80.361" transform="matrix(0.056111, -0.998425, 0.998425, 0.056111, -19.944208, 143.840471)"/>
  </g>
  <g style="" transform="matrix(0.122767, 0, 0, 0.122767, 123.02581, 425.547638)">
    <polygon style="fill: rgb(255, 225, 0);" points="66.554 46.598 52.999 81.067 70.751 114.651 77.99 78.517"/>
    <polygon style="fill: rgb(255, 225, 0);" points="67.163 48.442 53.608 82.911 71.36 116.495 78.599 80.361" transform="matrix(0.056111, -0.998425, 0.998425, 0.056111, -19.944208, 143.840471)"/>
  </g>
  <g style="" transform="matrix(0.149686, 0, 0, 0.149686, 446.846252, 55.778877)">
    <polygon style="fill: rgb(255, 225, 0);" points="66.554 46.598 52.999 81.067 70.751 114.651 77.99 78.517"/>
    <polygon style="fill: rgb(255, 225, 0);" points="67.163 48.442 53.608 82.911 71.36 116.495 78.599 80.361" transform="matrix(0.056111, -0.998425, 0.998425, 0.056111, -19.944208, 143.840471)"/>
  </g>
  <g style="" transform="matrix(0.184831, 0, 0, 0.184831, 353.517609, 56.194511)">
    <polygon style="fill: rgb(255, 225, 0);" points="66.554 46.598 52.999 81.067 70.751 114.651 77.99 78.517"/>
    <polygon style="fill: rgb(255, 225, 0);" points="67.163 48.442 53.608 82.911 71.36 116.495 78.599 80.361" transform="matrix(0.056111, -0.998425, 0.998425, 0.056111, -19.944208, 143.840471)"/>
  </g>
  <g style="" transform="matrix(0.122767, 0, 0, 0.122767, 306.051971, 398.663666)">
    <polygon style="fill: rgb(255, 225, 0);" points="66.554 46.598 52.999 81.067 70.751 114.651 77.99 78.517"/>
    <polygon style="fill: rgb(255, 225, 0);" points="67.163 48.442 53.608 82.911 71.36 116.495 78.599 80.361" transform="matrix(0.056111, -0.998425, 0.998425, 0.056111, -19.944208, 143.840471)"/>
  </g>
  <g style="" transform="matrix(0.122767, 0, 0, 0.122767, 451.296631, 448.222961)">
    <polygon style="fill: rgb(255, 225, 0);" points="66.554 46.598 52.999 81.067 70.751 114.651 77.99 78.517"/>
    <polygon style="fill: rgb(255, 225, 0);" points="67.163 48.442 53.608 82.911 71.36 116.495 78.599 80.361" transform="matrix(0.056111, -0.998425, 0.998425, 0.056111, -19.944208, 143.840471)"/>
  </g>
  <g style="" transform="matrix(0.122767, 0, 0, 0.122767, 430.112854, 377.239502)">
    <polygon style="fill: rgb(255, 225, 0);" points="66.554 46.598 52.999 81.067 70.751 114.651 77.99 78.517"/>
    <polygon style="fill: rgb(255, 225, 0);" points="67.163 48.442 53.608 82.911 71.36 116.495 78.599 80.361" transform="matrix(0.056111, -0.998425, 0.998425, 0.056111, -19.944208, 143.840471)"/>
  </g>
  <g style="" transform="matrix(0.122767, 0, 0, 0.122767, 52.190586, 350.502441)">
    <polygon style="fill: rgb(255, 225, 0);" points="66.554 46.598 52.999 81.067 70.751 114.651 77.99 78.517"/>
    <polygon style="fill: rgb(255, 225, 0);" points="67.163 48.442 53.608 82.911 71.36 116.495 78.599 80.361" transform="matrix(0.056111, -0.998425, 0.998425, 0.056111, -19.944208, 143.840471)"/>
  </g>
</svg>